# xmcd CD database file
#
# Track frame offsets:
#	150
#	47030
#	102262
#	168309
#	214875
#
# Disc length: 3302 seconds
#
# Revision: 0
# Processed by: cddbd v1.5.2PL0 Copyright (c) Steve Scherf et al.
# Submitted via: CDex 1.78
#
DISCID=3f0ce405
DTITLE=Sarathy Korwar and Upaj Collective - My East is Your West CD2
DYEAR=2018
DGENRE=India overig
TTITLE0=Journey In Satchidananda
TTITLE1=Hajj
TTITLE2=Earth
TTITLE3=Mishrank (Jazzmine)
TTITLE4=Utopia And Visions
EXTD=YEAR: 2018
EXTT0=
EXTT1=
EXTT2=
EXTT3=
EXTT4=
PLAYORDER=
